<svg width="32" height="16" viewBox="0 0 32 16" fill="none" xmlns="http://www.w3.org/2000/svg">
<g id="Arrow" clip-path="url(#clip0_64_201)">
<path id="Vector" fill-rule="evenodd" clip-rule="evenodd" d="M15.9987 13.927L29.9977 0.279882C30.1634 0.118463 30.3859 0.0281114 30.6175 0.0281114C30.8492 0.0281115 31.0717 0.118463 31.2374 0.279882C31.3192 0.358072 31.3843 0.451941 31.4287 0.555851C31.4732 0.659762 31.4961 0.771565 31.4961 0.884534C31.4961 0.997502 31.4732 1.10931 31.4287 1.21322C31.3843 1.31713 31.3192 1.41099 31.2374 1.48919L16.616 15.741C16.4502 15.9024 16.2275 15.9929 15.9957 15.9929C15.7638 15.9929 15.5412 15.9024 15.3753 15.741L0.759924 1.48918C0.597433 1.33208 0.504021 1.11718 0.500174 0.891525C0.500626 0.779555 0.523878 0.668805 0.568525 0.566065C0.613175 0.463325 0.678299 0.3707 0.759924 0.293805C0.925821 0.132322 1.14847 0.0419728 1.38031 0.0419728C1.61214 0.0419728 1.83479 0.132322 2.00069 0.293805L15.9987 13.927Z" fill="#202A54"/>
</g>
<defs>
<clipPath id="clip0_64_201">
<rect width="16" height="31" fill="white" transform="matrix(1.19249e-08 -1 -1 -1.19249e-08 31.5 16)"/>
</clipPath>
</defs>
</svg>
