<svg width="32" height="16" viewBox="0 0 32 16" fill="none" xmlns="http://www.w3.org/2000/svg">
<g id="Arrow" clip-path="url(#clip0_64_192)">
<path id="Vector" fill-rule="evenodd" clip-rule="evenodd" d="M15.9987 2.07299L29.9977 15.7201C30.1634 15.8815 30.3859 15.9719 30.6175 15.9719C30.8492 15.9719 31.0717 15.8815 31.2374 15.7201C31.3192 15.6419 31.3843 15.5481 31.4287 15.4441C31.4732 15.3402 31.4961 15.2284 31.4961 15.1155C31.4961 15.0025 31.4732 14.8907 31.4287 14.7868C31.3843 14.6829 31.3192 14.589 31.2374 14.5108L16.616 0.259033C16.4502 0.09755 16.2275 0.00714045 15.9957 0.00714044C15.7638 0.00714043 15.5412 0.09755 15.3753 0.259033L0.759923 14.5108C0.597432 14.6679 0.50402 14.8828 0.500173 15.1085C0.500625 15.2204 0.523877 15.3312 0.568525 15.4339C0.613174 15.5367 0.678298 15.6293 0.759923 15.7062C0.925821 15.8677 1.14847 15.958 1.38031 15.958C1.61214 15.958 1.83479 15.8677 2.00069 15.7062L15.9987 2.07299Z" fill="#C2C6D2"/>
</g>
<defs>
<clipPath id="clip0_64_192">
<rect width="16" height="31" fill="white" transform="translate(31.5) rotate(90)"/>
</clipPath>
</defs>
</svg>
